<svg width="72" height="72" viewBox="0 0 72 72" fill="none" xmlns="http://www.w3.org/2000/svg">
<g id="Group 4">
<g id="Group 2">
<path id="Rectangle 3" d="M0 8.85734C0 3.96557 3.96557 0 8.85734 0H63.1427C68.0344 0 72 3.96557 72 8.85734V63.1427C72 68.0344 68.0344 72 63.1427 72H8.85734C3.96557 72 0 68.0344 0 63.1427V8.85734Z" fill="#EBFEFF"/>
<g id="Logo Shapes 30" filter="url(#filter0_d_295_99)">
<g id="Clip path group">
<mask id="mask0_295_99" style="mask-type:luminance" maskUnits="userSpaceOnUse" x="28" y="27" width="33" height="33">
<g id="clip0">
<path id="Vector" d="M60.0481 27.324H28.0801V59.2883H60.0481V27.324Z" fill="white"/>
</g>
</mask>
<g mask="url(#mask0_295_99)">
<g id="Group">
<path id="Vector_2" d="M60.0481 32.0696V49.8452H50.605V27.324H55.3025C55.9257 27.324 56.5428 27.4467 57.1185 27.6852C57.6943 27.9237 58.2174 28.2733 58.6581 28.7139C59.0988 29.1546 59.4483 29.6777 59.6868 30.2535C59.9253 30.8293 60.0481 31.4464 60.0481 32.0696Z" fill="url(#paint0_linear_295_99)"/>
<path id="Vector_3" d="M50.605 27.324V36.767H28.0801V32.0696C28.0802 31.4461 28.2032 30.8288 28.442 30.2528C28.6807 29.6769 29.0306 29.1536 29.4717 28.713C29.9127 28.2723 30.4362 27.9228 31.0124 27.6845C31.5885 27.4461 32.2059 27.3236 32.8294 27.324H50.605Z" fill="url(#paint1_linear_295_99)"/>
<path id="Vector_4" d="M37.5232 36.7671V59.2883H32.8294C32.2059 59.2887 31.5884 59.1663 31.0123 58.928C30.4361 58.6896 29.9126 58.3402 29.4716 57.8995C29.0305 57.4588 28.6806 56.9355 28.4419 56.3595C28.2031 55.7836 28.0802 55.1662 28.0801 54.5427V36.7671H37.5232Z" fill="url(#paint2_linear_295_99)"/>
<path id="Vector_5" d="M60.0478 49.8452V54.5442C60.0478 55.1674 59.9251 55.7845 59.6866 56.3602C59.4481 56.936 59.0986 57.4591 58.6579 57.8998C58.2172 58.3405 57.6941 58.69 57.1183 58.9285C56.5426 59.167 55.9255 59.2898 55.3023 59.2898H37.5229V49.8467L60.0478 49.8452Z" fill="url(#paint3_linear_295_99)"/>
<g id="Group_2" style="mix-blend-mode:multiply" opacity="0.15">
<path id="Vector_6" d="M60.0481 42.8159V49.8455H50.605V47.8813L60.0481 42.8159Z" fill="black"/>
</g>
<g id="Group_3" style="mix-blend-mode:multiply" opacity="0.15">
<path id="Vector_7" d="M44.4748 59.2883H37.5229V49.8452H39.4108L44.4748 59.2883Z" fill="black"/>
</g>
<g id="Group_4" style="mix-blend-mode:multiply" opacity="0.15">
<path id="Vector_8" d="M37.5232 36.7671V38.7438L28.0801 43.8077V36.7671H37.5232Z" fill="black"/>
</g>
<g id="Group_5" style="mix-blend-mode:multiply" opacity="0.15">
<path id="Vector_9" d="M50.6754 27.324V37.8665H50.605V36.767H48.6802L43.6162 27.324H50.6754Z" fill="black"/>
</g>
<g id="Group_6" style="mix-blend-mode:multiply" opacity="0.3">
<path id="Vector_10" d="M60.0481 49.5936V49.8453H50.605V49.4899L52.9037 49.4751L55.2839 49.4899L57.6679 49.5269L60.0481 49.5936Z" fill="black"/>
</g>
<g id="Group_7" style="mix-blend-mode:multiply" opacity="0.3">
<path id="Vector_11" d="M37.8931 51.9589L37.8783 54.402L37.8339 56.8452L37.7598 59.2883H37.5229V49.8452H37.882L37.8931 51.9589Z" fill="black"/>
</g>
<g id="Group_8" style="mix-blend-mode:multiply" opacity="0.3">
<path id="Vector_12" d="M37.5232 36.7671V37.1262L35.3169 37.1336L32.9071 37.1188C31.2969 37.0965 29.6903 37.0632 28.0801 37.0003V36.7671H37.5232Z" fill="black"/>
</g>
<g id="Group_9" style="mix-blend-mode:multiply" opacity="0.3">
<path id="Vector_13" d="M50.6047 27.324V36.767H50.316L50.3086 34.757L50.3197 32.2806C50.3456 30.6259 50.3789 28.9749 50.4419 27.324H50.6047Z" fill="black"/>
</g>
<g id="Group_10" style="mix-blend-mode:screen" opacity="0.4">
<path id="Vector_14" d="M60.048 49.8452V54.5442C59.9851 53.7631 59.937 52.9783 59.9 52.1973C59.8593 51.4977 59.8333 50.8017 59.8074 50.1058L57.6678 50.165L55.2839 50.2021L52.9037 50.2169L50.5235 50.2021L48.1433 50.165L45.7594 50.1021C44.1751 50.0392 42.5871 49.9726 40.999 49.8467L60.048 49.8452Z" fill="white"/>
</g>
<g id="Group_11" style="mix-blend-mode:overlay" opacity="0.6">
<path id="Vector_15" d="M37.5228 39.7397V59.2885H33.1289C34.5133 59.1811 35.8941 59.1145 37.2785 59.0627L37.2119 56.8454L37.1675 54.4023L37.1527 51.9591L37.1638 49.516C37.1675 48.7016 37.1897 47.8872 37.2008 47.0728C37.2119 46.2585 37.2452 45.4441 37.2674 44.626C37.3266 42.9973 37.397 41.3685 37.5228 39.7397Z" fill="white"/>
</g>
<g id="Group_12" style="mix-blend-mode:screen" opacity="0.4">
<path id="Vector_16" d="M47.3808 36.7673H28.0801V32.5955C28.1837 33.9059 28.2504 35.2163 28.3022 36.5267C29.8347 36.4712 31.3709 36.4378 32.9071 36.4156L35.3169 36.4008L37.7304 36.4082C39.3407 36.423 40.9497 36.4563 42.5575 36.5082C44.164 36.5711 45.7743 36.6377 47.3808 36.7673Z" fill="white"/>
</g>
<g id="Group_13" style="mix-blend-mode:overlay" opacity="0.6">
<path id="Vector_17" d="M52.8514 27.4572C52.2073 27.498 51.5632 27.5239 50.9154 27.5498C50.9747 29.1267 51.0043 30.7036 51.0302 32.2806L51.0413 34.757L51.0339 37.2335C51.0191 38.8844 50.9858 40.5366 50.9339 42.1901C50.9006 43.0155 50.8784 43.841 50.8266 44.6665C50.7748 45.492 50.7415 46.3175 50.6748 47.143C50.6452 46.7913 50.623 46.4396 50.6045 46.088V27.324H55.0317C54.3066 27.3832 53.5773 27.4165 52.8514 27.4572Z" fill="white"/>
</g>
</g>
</g>
</g>
</g>
<g id="Logo Shapes 11" filter="url(#filter1_d_295_99)">
<g id="Clip path group_2">
<mask id="mask1_295_99" style="mask-type:luminance" maskUnits="userSpaceOnUse" x="12" y="12" width="33" height="33">
<g id="clip0_2">
<path id="Vector_18" d="M44.0642 12.6719H12.0962V44.6362H44.0642V12.6719Z" fill="white"/>
</g>
</mask>
<g mask="url(#mask1_295_99)">
<g id="Group_14">
<path id="Vector_19" d="M44.0642 17.4175V35.1931H34.6211V12.6719H39.3186C39.9418 12.6719 40.5589 12.7946 41.1346 13.0331C41.7104 13.2716 42.2336 13.6212 42.6742 14.0618C43.1149 14.5025 43.4644 15.0257 43.7029 15.6014C43.9414 16.1772 44.0642 16.7943 44.0642 17.4175Z" fill="url(#paint4_linear_295_99)"/>
<path id="Vector_20" d="M34.6211 12.6719V22.1149H12.0962V17.4175C12.0963 16.794 12.2193 16.1767 12.4581 15.6007C12.6969 15.0248 13.0467 14.5015 13.4878 14.0609C13.9288 13.6202 14.4523 13.2707 15.0285 13.0324C15.6046 12.794 16.222 12.6715 16.8455 12.6719H34.6211Z" fill="url(#paint5_linear_295_99)"/>
<path id="Vector_21" d="M21.5393 22.1152V44.6365H16.8455C16.222 44.6369 15.6045 44.5144 15.0284 44.2761C14.4523 44.0378 13.9287 43.6883 13.4877 43.2476C13.0466 42.8069 12.6967 42.2836 12.458 41.7077C12.2192 41.1317 12.0963 40.5143 12.0962 39.8909V22.1152H21.5393Z" fill="url(#paint6_linear_295_99)"/>
<path id="Vector_22" d="M44.064 35.1934V39.8923C44.064 40.5155 43.9412 41.1326 43.7027 41.7084C43.4642 42.2841 43.1147 42.8073 42.674 43.248C42.2333 43.6886 41.7102 44.0382 41.1345 44.2767C40.5587 44.5152 39.9416 44.6379 39.3184 44.6379H21.5391V35.1948L44.064 35.1934Z" fill="url(#paint7_linear_295_99)"/>
<g id="Group_15" style="mix-blend-mode:multiply" opacity="0.15">
<path id="Vector_23" d="M44.0642 28.1638V35.1934H34.6211V33.2292L44.0642 28.1638Z" fill="black"/>
</g>
<g id="Group_16" style="mix-blend-mode:multiply" opacity="0.15">
<path id="Vector_24" d="M28.4909 44.6364H21.5391V35.1934H23.4269L28.4909 44.6364Z" fill="black"/>
</g>
<g id="Group_17" style="mix-blend-mode:multiply" opacity="0.15">
<path id="Vector_25" d="M21.5393 22.1152V24.0919L12.0962 29.1559V22.1152H21.5393Z" fill="black"/>
</g>
<g id="Group_18" style="mix-blend-mode:multiply" opacity="0.15">
<path id="Vector_26" d="M34.6915 12.6719V23.2144H34.6212V22.1149H32.6963L27.6323 12.6719H34.6915Z" fill="black"/>
</g>
<g id="Group_19" style="mix-blend-mode:multiply" opacity="0.3">
<path id="Vector_27" d="M44.0642 34.9415V35.1932H34.6211V34.8378L36.9199 34.823L39.3001 34.8378L41.684 34.8748L44.0642 34.9415Z" fill="black"/>
</g>
<g id="Group_20" style="mix-blend-mode:multiply" opacity="0.3">
<path id="Vector_28" d="M21.9092 37.307L21.8944 39.7502L21.85 42.1933L21.7759 44.6364H21.5391V35.1934H21.8981L21.9092 37.307Z" fill="black"/>
</g>
<g id="Group_21" style="mix-blend-mode:multiply" opacity="0.3">
<path id="Vector_29" d="M21.5393 22.1152V22.4743L19.333 22.4817L16.9232 22.4669C15.313 22.4447 13.7064 22.4114 12.0962 22.3484V22.1152H21.5393Z" fill="black"/>
</g>
<g id="Group_22" style="mix-blend-mode:multiply" opacity="0.3">
<path id="Vector_30" d="M34.6208 12.6719V22.1149H34.3321L34.3247 20.1049L34.3358 17.6285C34.3617 15.9738 34.395 14.3228 34.458 12.6719H34.6208Z" fill="black"/>
</g>
<g id="Group_23" style="mix-blend-mode:screen" opacity="0.4">
<path id="Vector_31" d="M44.0642 35.1934V39.8923C44.0012 39.1113 43.9531 38.3265 43.9161 37.5454C43.8754 36.8458 43.8495 36.1499 43.8235 35.454L41.684 35.5132L39.3001 35.5502L36.9198 35.565L34.5396 35.5502L32.1594 35.5132L29.7755 35.4503C28.1912 35.3873 26.6032 35.3207 25.0151 35.1948L44.0642 35.1934Z" fill="white"/>
</g>
<g id="Group_24" style="mix-blend-mode:overlay" opacity="0.6">
<path id="Vector_32" d="M21.539 25.0876V44.6364H17.145C18.5295 44.529 19.9102 44.4625 21.2946 44.4106L21.228 42.1933L21.1836 39.7502L21.1688 37.307L21.1799 34.8639C21.1836 34.0495 21.2058 33.2351 21.2169 32.4207C21.228 31.6064 21.2613 30.792 21.2835 29.9739C21.3428 28.3452 21.4131 26.7164 21.539 25.0876Z" fill="white"/>
</g>
<g id="Group_25" style="mix-blend-mode:screen" opacity="0.4">
<path id="Vector_33" d="M31.3969 22.1149H12.0962V17.9431C12.1998 19.2535 12.2665 20.5639 12.3183 21.8743C13.8508 21.8188 15.387 21.7855 16.9232 21.7633L19.333 21.7485L21.7466 21.7559C23.3568 21.7707 24.9658 21.804 26.5736 21.8558C28.1801 21.9188 29.7904 21.9854 31.3969 22.1149Z" fill="white"/>
</g>
<g id="Group_26" style="mix-blend-mode:overlay" opacity="0.6">
<path id="Vector_34" d="M36.8675 12.8051C36.2234 12.8459 35.5793 12.8718 34.9315 12.8977C34.9908 14.4746 35.0204 16.0515 35.0463 17.6285L35.0574 20.1049L35.05 22.5814C35.0352 24.2323 35.0019 25.8845 34.9501 27.538C34.9167 28.3634 34.8945 29.1889 34.8427 30.0144C34.7909 30.8399 34.7576 31.6654 34.6909 32.4909C34.6613 32.1392 34.6391 31.7875 34.6206 31.4359V12.6719H39.0479C38.3227 12.7311 37.5935 12.7644 36.8675 12.8051Z" fill="white"/>
</g>
</g>
</g>
</g>
</g>
</g>
</g>
<defs>
<filter id="filter0_d_295_99" x="27.0811" y="26.991" width="33.9658" height="33.9624" filterUnits="userSpaceOnUse" color-interpolation-filters="sRGB">
<feFlood flood-opacity="0" result="BackgroundImageFix"/>
<feColorMatrix in="SourceAlpha" type="matrix" values="0 0 0 0 0 0 0 0 0 0 0 0 0 0 0 0 0 0 127 0" result="hardAlpha"/>
<feOffset dy="0.666"/>
<feGaussianBlur stdDeviation="0.4995"/>
<feComposite in2="hardAlpha" operator="out"/>
<feColorMatrix type="matrix" values="0 0 0 0 0 0 0 0 0 0 0 0 0 0 0 0 0 0 0.5 0"/>
<feBlend mode="normal" in2="BackgroundImageFix" result="effect1_dropShadow_295_99"/>
<feBlend mode="normal" in="SourceGraphic" in2="effect1_dropShadow_295_99" result="shape"/>
</filter>
<filter id="filter1_d_295_99" x="11.0972" y="12.3389" width="33.9658" height="33.9624" filterUnits="userSpaceOnUse" color-interpolation-filters="sRGB">
<feFlood flood-opacity="0" result="BackgroundImageFix"/>
<feColorMatrix in="SourceAlpha" type="matrix" values="0 0 0 0 0 0 0 0 0 0 0 0 0 0 0 0 0 0 127 0" result="hardAlpha"/>
<feOffset dy="0.666"/>
<feGaussianBlur stdDeviation="0.4995"/>
<feComposite in2="hardAlpha" operator="out"/>
<feColorMatrix type="matrix" values="0 0 0 0 0 0 0 0 0 0 0 0 0 0 0 0 0 0 0.5 0"/>
<feBlend mode="normal" in2="BackgroundImageFix" result="effect1_dropShadow_295_99"/>
<feBlend mode="normal" in="SourceGraphic" in2="effect1_dropShadow_295_99" result="shape"/>
</filter>
<linearGradient id="paint0_linear_295_99" x1="55.3265" y1="26.9411" x2="55.3265" y2="49.7551" gradientUnits="userSpaceOnUse">
<stop stop-color="#019CA4"/>
<stop offset="1" stop-color="#015D62"/>
</linearGradient>
<linearGradient id="paint1_linear_295_99" x1="50.4699" y1="32.0455" x2="28.6657" y2="32.0455" gradientUnits="userSpaceOnUse">
<stop stop-color="#015D62"/>
<stop offset="1" stop-color="#019CA4"/>
</linearGradient>
<linearGradient id="paint2_linear_295_99" x1="32.8016" y1="58.3199" x2="32.8016" y2="37.195" gradientUnits="userSpaceOnUse">
<stop stop-color="#019CA4"/>
<stop offset="1" stop-color="#015D62"/>
</linearGradient>
<linearGradient id="paint3_linear_295_99" x1="37.5229" y1="54.5675" x2="60.0478" y2="54.5675" gradientUnits="userSpaceOnUse">
<stop stop-color="#015D62"/>
<stop offset="1" stop-color="#019CA4"/>
</linearGradient>
<linearGradient id="paint4_linear_295_99" x1="39.3426" y1="12.289" x2="39.3426" y2="35.103" gradientUnits="userSpaceOnUse">
<stop stop-color="#019CA4"/>
<stop offset="1" stop-color="#015D62"/>
</linearGradient>
<linearGradient id="paint5_linear_295_99" x1="34.486" y1="17.3934" x2="12.6818" y2="17.3934" gradientUnits="userSpaceOnUse">
<stop stop-color="#015D62"/>
<stop offset="1" stop-color="#019CA4"/>
</linearGradient>
<linearGradient id="paint6_linear_295_99" x1="16.8177" y1="43.6681" x2="16.8177" y2="22.5432" gradientUnits="userSpaceOnUse">
<stop stop-color="#019CA4"/>
<stop offset="1" stop-color="#015D62"/>
</linearGradient>
<linearGradient id="paint7_linear_295_99" x1="21.5391" y1="39.9156" x2="44.064" y2="39.9156" gradientUnits="userSpaceOnUse">
<stop stop-color="#015D62"/>
<stop offset="1" stop-color="#019CA4"/>
</linearGradient>
</defs>
</svg>
